<svg xmlns="http://www.w3.org/2000/svg" xmlns:xlink="http://www.w3.org/1999/xlink" viewBox="0.101 -1 544 544" width="540" height="540"><defs><path d="M1.1 0h540v540H1.1V0z" id="a"/><path d="M493.23 198.76c-8.14-5.36-18.16-8-27.78-7.48-12.11-25.88-29.25-49.55-50.82-69.72C372.2 81.86 317.3 60 260.06 60c-57.71 0-107.02 20.03-142.59 57.93-31.16 33.21-51.25 79.61-58.64 134.98C39.68 254.38 25 273.77 25 298.27c0 25.5 15.89 45.47 36.17 45.47 1.65 0 3.3-.15 4.93-.43 8.42 24.26 22.14 47.09 40.75 67.25 42.4 45.91 105.78 73.32 169.54 73.32 59.4 0 116.38-24.36 156.33-66.82 34.78-36.98 53.56-83.92 53.59-133.28 7.2-3.12 13.96-8.28 18.98-14.67 8.41-10.7 11.5-24.1 8.71-37.73-3.69-18.08-13.33-27.72-20.77-32.62zM260.06 79.98c52.16 0 102.2 19.95 140.92 56.17 20.66 19.32 36.86 42.14 47.97 67.09-3.41 2.52-30.75 22.62-34.17 25.13-8.97-22.96-29.01-39-52.24-39-21.95 0-41.04 14.31-50.65 35.26-9.14-3.96-18.44-3.01-26-.38-10.44-27.18-34.1-46.2-61.56-46.2-29.66 0-54.88 22.2-63.8 52.91-6.92-2.99-62.29-26.89-69.21-29.87 9.5-27.33 23.19-50.8 40.72-69.48 31.7-33.78 75.97-51.63 128.02-51.63zm102.48 221.46c-20.57 0-37.3-20.66-37.3-46.04 0-25.39 16.73-46.04 37.3-46.04 20.57 0 37.3 20.65 37.3 46.04s-16.73 46.04-37.3 46.04zm-138.2 11.32c-26.08 0-47.29-25.73-47.29-57.36s21.21-57.37 47.29-57.37c26.07 0 47.29 25.74 47.29 57.37s-21.22 57.36-47.29 57.36zM56.7 273.88c-1.12 16.86.19 33.59 3.82 49.85-8.35-.58-15.54-12.22-15.54-25.46 0-11.15 5.11-21.17 11.72-24.39zm219.69 190.01c-58.28 0-116.17-25-154.86-66.89-32.43-35.11-48.33-79.12-44.76-123.91 1.49-18.65 4.42-36.29 8.71-52.75 7.17 3.09 64.51 27.84 71.68 30.93-.06 1.37-.1 2.74-.1 4.13 0 42.65 30.18 77.35 67.27 77.35 37.1 0 67.27-34.7 67.27-77.35 0-3.97-.26-7.88-.76-11.69 3.94-1.75 9.75-3.04 15.26.48a76.52 76.52 0 00-.84 11.21c0 36.4 25.69 66.02 57.28 66.02 31.58 0 57.28-29.62 57.28-66.02 0-1.94-.09-3.86-.23-5.76 3.68-2.71 33.12-24.35 36.8-27.06 5.3 16.19 8.56 33.07 9.62 50.33 2.95 48.19-14.05 94.53-47.85 130.46-36.19 38.46-87.86 60.52-141.77 60.52zM473.87 211.9c2.78.64 5.65 1.76 8.37 3.55 6.22 4.1 10.32 10.81 12.18 19.93 2.42 11.84-2.89 20.64-9.35 25.92-1.83-16.95-5.62-33.5-11.2-49.4z" id="c"/><path d="M246.68 255.4c-6.89 0-12.48 5.58-12.48 12.47 0 6.9 5.59 12.48 12.48 12.48 6.89 0 12.48-5.58 12.48-12.48 0-6.89-5.59-12.47-12.48-12.47z" id="d"/><path d="M372.36 263.72c-6.89 0-12.48 5.58-12.48 12.47 0 6.9 5.59 12.48 12.48 12.48 6.89 0 12.47-5.58 12.47-12.48 0-6.89-5.58-12.47-12.47-12.47z" id="e"/><path d="M362.05 346.43c-.03 0-.07.01-.11.01-5.46.8-9.23 5.88-8.43 11.34.5 3.36 1.15 6.55 1.93 9.61-49.56 21.89-102.38 9.22-115.93 5.33.74-3.27 1.21-6.57 1.4-9.9.2-3.48-1.4-6.63-3.99-8.58a10.046 10.046 0 00-5.42-1.97c-5.5-.31-10.23 3.9-10.54 9.41-.52 9-3.94 17.54-10.78 26.88-3.23 4.42-2.3 10.62 2.07 13.9l.09.06c4.45 3.26 10.71 2.29 13.97-2.16 2.19-2.99 4.13-5.98 5.82-8.97 7.53 2.32 30.65 8.64 60.05 8.64 21.47 0 46.29-3.4 70.82-14.15 1.89 3.17 4.04 6.13 6.47 8.89a10 10 0 008.86 3.31 9.92 9.92 0 005.23-2.4c4.15-3.64 4.56-9.95.92-14.09-5.96-6.78-9.52-15.27-11.2-26.72-.8-5.42-5.81-9.18-11.23-8.44z" id="f"/><clipPath id="b"><use xlink:href="#a"/></clipPath></defs><use xlink:href="#a" fill="#fff"/><g clip-path="url(#b)"><use xlink:href="#a" fill-opacity="0" stroke="#292b2c" stroke-width="20"/></g><g><use xlink:href="#c" fill="#292b2c"/><use xlink:href="#c" fill-opacity="0" stroke="#000" stroke-opacity="0"/><use xlink:href="#d" fill="#292b2c"/><use xlink:href="#d" fill-opacity="0" stroke="#000" stroke-opacity="0"/><g><use xlink:href="#e" fill="#292b2c"/><use xlink:href="#e" fill-opacity="0" stroke="#000" stroke-opacity="0"/></g><g><use xlink:href="#f" fill="#292b2c"/><use xlink:href="#f" fill-opacity="0" stroke="#000" stroke-opacity="0"/></g></g></svg>
