<svg xmlns="http://www.w3.org/2000/svg" xmlns:xlink="http://www.w3.org/1999/xlink" viewBox="0 0 1533.27 893.83">
  <title>Working on the laptop</title>
  <defs>
    <linearGradient id="a41e0e57-fb12-4657-a229-bb12d69830fa" x1="1150.86" y1="29.01" x2="741.38" y2="685.09" gradientUnits="userSpaceOnUse">
      <stop offset="0" stop-color="#1a0048"/>
      <stop offset="1" stop-color="#380048"/>
    </linearGradient>
    <linearGradient id="a766e271-3ea5-4146-888b-0db19c7403ef" x1="766.3" y1="209.71" x2="766.3" y2="586.1" xlink:href="#a41e0e57-fb12-4657-a229-bb12d69830fa"/>
    <linearGradient id="b830e5f5-0a4d-40c5-b990-73a3e5eaf1d3" x1="766.3" y1="426.77" x2="766.3" y2="690.18" gradientUnits="userSpaceOnUse">
      <stop offset="0" stop-color="#a498ff"/>
      <stop offset="1" stop-color="#5b3371"/>
    </linearGradient>
    <linearGradient id="b6c771d0-ee21-43d8-b5eb-6dc4efe5e196" x1="464.24" y1="480.11" x2="504.84" y2="480.11" gradientUnits="userSpaceOnUse">
      <stop offset="0" stop-color="#3c1778"/>
      <stop offset="1" stop-color="#5f007a"/>
    </linearGradient>
    <linearGradient id="b85573af-9281-4def-a0fc-aa84f7fac12c" x1="452.64" y1="496.18" x2="515.05" y2="496.18" xlink:href="#b6c771d0-ee21-43d8-b5eb-6dc4efe5e196"/>
    <linearGradient id="f7fa8c60-b1ff-4b2c-96d3-b0053095cb04" x1="500.42" y1="480.11" x2="539.97" y2="480.11" xlink:href="#b6c771d0-ee21-43d8-b5eb-6dc4efe5e196"/>
    <linearGradient id="b4029c98-f06c-4b49-8347-dea51593b369" x1="510.78" y1="496.18" x2="551.49" y2="496.18" xlink:href="#b6c771d0-ee21-43d8-b5eb-6dc4efe5e196"/>
    <linearGradient id="e91b213b-f8e4-4a77-a08a-a4ca9cafca01" x1="548.36" y1="496.18" x2="587.93" y2="496.18" xlink:href="#b6c771d0-ee21-43d8-b5eb-6dc4efe5e196"/>
    <linearGradient id="f7a14226-0735-494d-8430-0790b0441a93" x1="585.93" y1="496.18" x2="624.37" y2="496.18" xlink:href="#b6c771d0-ee21-43d8-b5eb-6dc4efe5e196"/>
    <linearGradient id="ee75334e-ce47-4349-bbc0-f738acbcabb8" x1="623.51" y1="496.18" x2="660.81" y2="496.18" xlink:href="#b6c771d0-ee21-43d8-b5eb-6dc4efe5e196"/>
    <linearGradient id="bddcd62e-cdbf-49ba-b928-dc1f6643d208" x1="661.09" y1="496.18" x2="697.24" y2="496.18" xlink:href="#b6c771d0-ee21-43d8-b5eb-6dc4efe5e196"/>
    <linearGradient id="e183f6cf-10be-46e8-a92f-fd3b2f5b643b" x1="698.66" y1="496.18" x2="733.68" y2="496.18" xlink:href="#b6c771d0-ee21-43d8-b5eb-6dc4efe5e196"/>
    <linearGradient id="e9857693-5a31-42d5-948c-5d1bf14e55a6" x1="736.24" y1="496.18" x2="770.24" y2="496.18" xlink:href="#b6c771d0-ee21-43d8-b5eb-6dc4efe5e196"/>
    <linearGradient id="eb5fe06d-1464-44bb-a75a-e164261b0bef" x1="773.58" y1="496.18" x2="807.82" y2="496.18" xlink:href="#b6c771d0-ee21-43d8-b5eb-6dc4efe5e196"/>
    <linearGradient id="af5ced16-b13d-487b-aca4-8cea66e48c42" x1="810.02" y1="496.18" x2="845.39" y2="496.18" xlink:href="#b6c771d0-ee21-43d8-b5eb-6dc4efe5e196"/>
    <linearGradient id="bcf1e1d7-5dff-47a0-83bc-a7d8a7103cc4" x1="846.46" y1="496.18" x2="882.97" y2="496.18" xlink:href="#b6c771d0-ee21-43d8-b5eb-6dc4efe5e196"/>
    <linearGradient id="b7eba741-dc96-401b-ab75-0866509e9d23" x1="882.9" y1="496.18" x2="920.54" y2="496.18" xlink:href="#b6c771d0-ee21-43d8-b5eb-6dc4efe5e196"/>
    <linearGradient id="bd0e002b-213f-4e1a-afe8-b69f5cbeea55" x1="919.33" y1="496.18" x2="958.12" y2="496.18" xlink:href="#b6c771d0-ee21-43d8-b5eb-6dc4efe5e196"/>
    <linearGradient id="ab037e76-80e2-46f4-a539-d467a3e6069e" x1="955.77" y1="496.18" x2="995.69" y2="496.18" xlink:href="#b6c771d0-ee21-43d8-b5eb-6dc4efe5e196"/>
    <linearGradient id="be19f9bb-6e8b-4389-90ab-6aa9b65d7e14" x1="992.21" y1="496.18" x2="1033.27" y2="496.18" xlink:href="#b6c771d0-ee21-43d8-b5eb-6dc4efe5e196"/>
    <linearGradient id="bb84ec48-6aee-422e-9e0d-d83f2560a4b9" x1="1028.65" y1="496.18" x2="1078.59" y2="496.18" xlink:href="#b6c771d0-ee21-43d8-b5eb-6dc4efe5e196"/>
    <linearGradient id="e1dfd4af-3408-46e1-a492-1e82efe958a7" x1="536.61" y1="480.11" x2="575.1" y2="480.11" xlink:href="#b6c771d0-ee21-43d8-b5eb-6dc4efe5e196"/>
    <linearGradient id="f8705f00-4dea-4f3e-8f6b-efe263e1cbe3" x1="572.79" y1="480.11" x2="610.23" y2="480.11" xlink:href="#b6c771d0-ee21-43d8-b5eb-6dc4efe5e196"/>
    <linearGradient id="a269207b-d9d3-40ec-a14f-d02d59267f06" x1="608.98" y1="480.11" x2="645.36" y2="480.11" xlink:href="#b6c771d0-ee21-43d8-b5eb-6dc4efe5e196"/>
    <linearGradient id="a639ffb3-16d8-43a7-b4b9-cb45d9536fcc" x1="645.16" y1="480.11" x2="680.49" y2="480.11" xlink:href="#b6c771d0-ee21-43d8-b5eb-6dc4efe5e196"/>
    <linearGradient id="e2d846fd-27ab-401f-9d1a-805579805868" x1="681.35" y1="480.11" x2="715.62" y2="480.11" xlink:href="#b6c771d0-ee21-43d8-b5eb-6dc4efe5e196"/>
    <linearGradient id="b516778f-1731-4cfa-992f-9e2aa94b827b" x1="717.53" y1="480.11" x2="750.75" y2="480.11" xlink:href="#b6c771d0-ee21-43d8-b5eb-6dc4efe5e196"/>
    <linearGradient id="ad9fcd1a-ca0c-4df0-a689-e8e53459c559" x1="753.72" y1="480.11" x2="786.47" y2="480.11" xlink:href="#b6c771d0-ee21-43d8-b5eb-6dc4efe5e196"/>
    <linearGradient id="eb08f77e-bcf2-4d20-ae8c-09869ca3b3b3" x1="789.21" y1="480.11" x2="822.65" y2="480.11" xlink:href="#b6c771d0-ee21-43d8-b5eb-6dc4efe5e196"/>
    <linearGradient id="b484e8fb-3d32-49fb-b3e2-96fa011da403" x1="824.34" y1="480.11" x2="858.84" y2="480.11" xlink:href="#b6c771d0-ee21-43d8-b5eb-6dc4efe5e196"/>
    <linearGradient id="be38eb47-4a7b-4bf1-ab0d-4ad531e41e76" x1="859.47" y1="480.11" x2="895.02" y2="480.11" xlink:href="#b6c771d0-ee21-43d8-b5eb-6dc4efe5e196"/>
    <linearGradient id="b2fb2e3b-96ef-41fb-9231-ef8a69d686ae" x1="894.6" y1="480.11" x2="931.21" y2="480.11" xlink:href="#b6c771d0-ee21-43d8-b5eb-6dc4efe5e196"/>
    <linearGradient id="a06d9e0b-fad9-4451-b679-9d99a58b3014" x1="929.73" y1="480.11" x2="967.39" y2="480.11" xlink:href="#b6c771d0-ee21-43d8-b5eb-6dc4efe5e196"/>
    <linearGradient id="e2b9d7c6-25e0-465f-9e72-a238c42f2411" x1="964.86" y1="480.11" x2="1003.58" y2="480.11" xlink:href="#b6c771d0-ee21-43d8-b5eb-6dc4efe5e196"/>
    <linearGradient id="a8435535-43ea-4675-9047-bb15342fec7f" x1="999.99" y1="480.11" x2="1068.35" y2="480.11" xlink:href="#b6c771d0-ee21-43d8-b5eb-6dc4efe5e196"/>
    <linearGradient id="a6644403-2857-4eaf-8897-ffe9a594ab87" x1="440.58" y1="512.87" x2="485" y2="512.87" xlink:href="#b6c771d0-ee21-43d8-b5eb-6dc4efe5e196"/>
    <linearGradient id="b3f64e98-d18b-4a09-bf48-e689528ed73d" x1="479.6" y1="512.87" x2="522.8" y2="512.87" xlink:href="#b6c771d0-ee21-43d8-b5eb-6dc4efe5e196"/>
    <linearGradient id="f5119193-3032-494e-83f2-bba94892c819" x1="518.62" y1="512.87" x2="560.6" y2="512.87" xlink:href="#b6c771d0-ee21-43d8-b5eb-6dc4efe5e196"/>
    <linearGradient id="ba5c7a04-c076-42aa-b947-42dc0c4775d8" x1="557.64" y1="512.87" x2="598.39" y2="512.87" xlink:href="#b6c771d0-ee21-43d8-b5eb-6dc4efe5e196"/>
    <linearGradient id="bef1186e-dc45-46ea-b8c8-9ab7750900b4" x1="596.66" y1="512.87" x2="636.19" y2="512.87" xlink:href="#b6c771d0-ee21-43d8-b5eb-6dc4efe5e196"/>
    <linearGradient id="e2bd3348-312c-460b-9bf0-3f5849b1a0a8" x1="635.68" y1="512.87" x2="673.98" y2="512.87" xlink:href="#b6c771d0-ee21-43d8-b5eb-6dc4efe5e196"/>
    <linearGradient id="a10d15f6-f0b3-4446-adf6-483d569747dc" x1="674.7" y1="512.87" x2="711.78" y2="512.87" xlink:href="#b6c771d0-ee21-43d8-b5eb-6dc4efe5e196"/>
    <linearGradient id="b1b74b0c-fbd5-453b-be33-93e874388286" x1="713.72" y1="512.87" x2="749.57" y2="512.87" xlink:href="#b6c771d0-ee21-43d8-b5eb-6dc4efe5e196"/>
    <linearGradient id="ebf39c98-bf1f-45ec-b50c-6d683545c56e" x1="752.74" y1="512.87" x2="788.05" y2="512.87" xlink:href="#b6c771d0-ee21-43d8-b5eb-6dc4efe5e196"/>
    <linearGradient id="ac650b79-8133-4ed3-bf59-7d37a0cf3475" x1="790.96" y1="512.87" x2="827.07" y2="512.87" xlink:href="#b6c771d0-ee21-43d8-b5eb-6dc4efe5e196"/>
    <linearGradient id="b052406b-37b1-4ae8-912c-a1e00669baf3" x1="828.75" y1="512.87" x2="866.09" y2="512.87" xlink:href="#b6c771d0-ee21-43d8-b5eb-6dc4efe5e196"/>
    <linearGradient id="f042997e-87e4-428a-a1ed-658e81683166" x1="866.55" y1="512.87" x2="905.12" y2="512.87" xlink:href="#b6c771d0-ee21-43d8-b5eb-6dc4efe5e196"/>
    <linearGradient id="aec1bb8b-de68-4101-b615-c4ba2a95d584" x1="904.34" y1="512.87" x2="944.14" y2="512.87" xlink:href="#b6c771d0-ee21-43d8-b5eb-6dc4efe5e196"/>
    <linearGradient id="f1cb4a4c-fd4a-462a-b3b1-017e25e0c41b" x1="942.14" y1="512.87" x2="983.16" y2="512.87" xlink:href="#b6c771d0-ee21-43d8-b5eb-6dc4efe5e196"/>
    <linearGradient id="b0bb601b-2a96-4560-a5ae-6319ec708605" x1="979.94" y1="512.87" x2="1022.18" y2="512.87" xlink:href="#b6c771d0-ee21-43d8-b5eb-6dc4efe5e196"/>
    <linearGradient id="faf72484-4de0-4b72-9a1c-e9f978506e1a" x1="1017.73" y1="512.87" x2="1092.02" y2="512.87" xlink:href="#b6c771d0-ee21-43d8-b5eb-6dc4efe5e196"/>
    <linearGradient id="a1f036fb-2c5b-4d28-988c-e28c4459b607" x1="426.4" y1="532.45" x2="473.17" y2="532.45" xlink:href="#b6c771d0-ee21-43d8-b5eb-6dc4efe5e196"/>
    <linearGradient id="b45a69c1-3b72-4b1a-8f8c-15771953573a" x1="467.12" y1="532.45" x2="512.55" y2="532.45" xlink:href="#b6c771d0-ee21-43d8-b5eb-6dc4efe5e196"/>
    <linearGradient id="af67e049-6935-4765-b832-832d8236e93c" x1="507.84" y1="532.45" x2="551.94" y2="532.45" xlink:href="#b6c771d0-ee21-43d8-b5eb-6dc4efe5e196"/>
    <linearGradient id="ec66172b-8c4a-4098-93d3-f1787bed1bd7" x1="548.56" y1="532.45" x2="591.33" y2="532.45" xlink:href="#b6c771d0-ee21-43d8-b5eb-6dc4efe5e196"/>
    <linearGradient id="bd0eb42b-ce44-469b-8cb3-fa498350bd3a" x1="870.77" y1="532.45" x2="911.16" y2="532.45" xlink:href="#b6c771d0-ee21-43d8-b5eb-6dc4efe5e196"/>
    <linearGradient id="b44563c0-f27c-4a71-ac44-bcf3a0a06886" x1="910.16" y1="532.45" x2="951.88" y2="532.45" xlink:href="#b6c771d0-ee21-43d8-b5eb-6dc4efe5e196"/>
    <linearGradient id="b1c2e5e0-0ebc-4cf7-842c-d3758a957e29" x1="949.55" y1="532.45" x2="992.6" y2="532.45" xlink:href="#b6c771d0-ee21-43d8-b5eb-6dc4efe5e196"/>
    <linearGradient id="f90f2d3f-7c6e-4857-a587-3920052a75c3" x1="988.93" y1="532.45" x2="1033.32" y2="532.45" xlink:href="#b6c771d0-ee21-43d8-b5eb-6dc4efe5e196"/>
    <linearGradient id="a4458e87-efa2-44f4-909a-a6500eab1444" x1="1028.65" y1="532.45" x2="1074.5" y2="532.45" xlink:href="#b6c771d0-ee21-43d8-b5eb-6dc4efe5e196"/>
    <linearGradient id="e8c2f410-18ed-4205-a08a-e54bf7d5520e" x1="1068.38" y1="532.45" x2="1106.2" y2="532.45" xlink:href="#b6c771d0-ee21-43d8-b5eb-6dc4efe5e196"/>
    <linearGradient id="a26b831a-38c2-41ef-9538-c4a6284aace8" x1="589.28" y1="532.45" x2="869.43" y2="532.45" xlink:href="#b6c771d0-ee21-43d8-b5eb-6dc4efe5e196"/>
    <linearGradient id="b1044b2f-a8b8-46f2-a44a-c5996cf1b282" x1="724.91" y1="521.13" x2="1070.79" y2="-93.19" xlink:href="#a41e0e57-fb12-4657-a229-bb12d69830fa"/>
    <linearGradient id="ef87451d-edae-420a-86dc-06cece524b71" x1="403.02" y1="965.69" x2="554.48" y2="630.32" gradientUnits="userSpaceOnUse">
      <stop offset="0" stop-color="#08001a"/>
      <stop offset="1" stop-color="#5d0ea6"/>
    </linearGradient>
    <linearGradient id="ee5666e5-16c0-4304-865d-8acf004d0962" x1="486.33" y1="945.85" x2="617.31" y2="655.8" gradientUnits="userSpaceOnUse">
      <stop offset="0" stop-color="#3d2855"/>
      <stop offset="1" stop-color="#5b3371"/>
    </linearGradient>
    <linearGradient id="a256bb00-9238-4eea-bf80-c76af48750d8" x1="543.12" y1="1104.31" x2="543.12" y2="480.87" gradientUnits="userSpaceOnUse">
      <stop offset="0" stop-color="#68007f"/>
      <stop offset="1" stop-color="#007dc0"/>
    </linearGradient>
    <linearGradient id="a506345b-d8e8-4904-90b9-3169151f7bd7" x1="1462.14" y1="997.42" x2="1241.33" y2="651.7" xlink:href="#ef87451d-edae-420a-86dc-06cece524b71"/>
    <linearGradient id="e1072dea-f4ee-46b7-98e2-a03d71c5670d" x1="-484.86" y1="945.85" x2="-353.87" y2="655.8" gradientTransform="matrix(-1 0 0 1 868.51 0)" xlink:href="#ee5666e5-16c0-4304-865d-8acf004d0962"/>
    <linearGradient id="be7fd534-966f-45ae-829e-567a7d094c6a" x1="1293.01" y1="1104.31" x2="1293.01" y2="480.87" xlink:href="#a256bb00-9238-4eea-bf80-c76af48750d8"/>
    <linearGradient id="b34cdafc-aee4-43d3-95ad-d16ec2d6fe94" x1="576.48" y1="378.98" x2="576.48" y2="40.86" gradientUnits="userSpaceOnUse">
      <stop offset="0" stop-color="#5125ff"/>
      <stop offset="1" stop-color="#51a2ff"/>
    </linearGradient>
    <linearGradient id="bd163c39-3a6e-4121-a2dc-76bcb364b423" x1="805.38" y1="109.89" x2="805.38" y2="371.47" gradientUnits="userSpaceOnUse">
      <stop offset="0" stop-color="#fe079e"/>
      <stop offset="1" stop-color="#cd007c"/>
    </linearGradient>
    <linearGradient id="b5259bb1-ba51-4dcc-897c-298f85261faa" x1="878.97" y1="483.38" x2="878.97" y2="86.31" gradientUnits="userSpaceOnUse">
      <stop offset="0" stop-color="#ffe897"/>
      <stop offset="1" stop-color="#d5ff50"/>
    </linearGradient>
    <linearGradient id="eb8e01eb-62b8-49af-aeb1-311b7a6c3619" x1="576.48" y1="109.89" x2="576.48" y2="371.47" xlink:href="#bd163c39-3a6e-4121-a2dc-76bcb364b423"/>
    <linearGradient id="b392e605-9cb9-45d2-8163-2d07570986d1" x1="687.8" y1="483.38" x2="687.8" y2="86.31" xlink:href="#b5259bb1-ba51-4dcc-897c-298f85261faa"/>
    <linearGradient id="aa446272-8812-4bac-97b1-88815a18484e" x1="576.23" y1="378.98" x2="576.23" y2="40.86" xlink:href="#b34cdafc-aee4-43d3-95ad-d16ec2d6fe94"/>
    <linearGradient id="a406fa38-4037-4870-9af0-531b18a82a5d" x1="730.76" y1="378.98" x2="730.76" y2="40.86" xlink:href="#b34cdafc-aee4-43d3-95ad-d16ec2d6fe94"/>
    <linearGradient id="b844ede3-98cc-47ac-b799-c4d7e33cbb6b" x1="576.27" y1="483.38" x2="576.27" y2="86.31" xlink:href="#b5259bb1-ba51-4dcc-897c-298f85261faa"/>
    <linearGradient id="bd7ab565-8920-4cd6-ae14-bae4c573d828" x1="637.69" y1="483.38" x2="637.69" y2="86.31" xlink:href="#b5259bb1-ba51-4dcc-897c-298f85261faa"/>
    <linearGradient id="e7aa37c1-a2c1-413d-bd6a-e87b27706152" x1="730.76" y1="109.89" x2="730.76" y2="371.47" xlink:href="#bd163c39-3a6e-4121-a2dc-76bcb364b423"/>
    <linearGradient id="f2e733e7-3017-4753-a0f6-e6dd78183919" x1="803.17" y1="483.38" x2="803.17" y2="86.31" xlink:href="#b5259bb1-ba51-4dcc-897c-298f85261faa"/>
    <linearGradient id="e3c048ed-dcfa-406a-b606-862b79428895" x1="575.96" y1="109.89" x2="575.96" y2="371.47" xlink:href="#bd163c39-3a6e-4121-a2dc-76bcb364b423"/>
    <linearGradient id="b615fd0e-5b80-473c-9340-21770d1b9ca0" x1="637.85" y1="483.38" x2="637.85" y2="86.31" xlink:href="#b5259bb1-ba51-4dcc-897c-298f85261faa"/>
    <linearGradient id="ad4dbefc-8d8b-4c14-92ca-cd4f35298b23" x1="730.76" y1="378.98" x2="730.76" y2="40.86" xlink:href="#b34cdafc-aee4-43d3-95ad-d16ec2d6fe94"/>
    <linearGradient id="e9b604a4-da44-431b-9926-4685d048a381" x1="803.34" y1="378.98" x2="803.34" y2="40.86" xlink:href="#b34cdafc-aee4-43d3-95ad-d16ec2d6fe94"/>
    <linearGradient id="b23c74c0-38c7-44ba-8ad0-bf178c309f83" x1="575.83" y1="483.38" x2="575.83" y2="86.31" xlink:href="#b5259bb1-ba51-4dcc-897c-298f85261faa"/>
    <linearGradient id="bac8aa0a-b172-4be9-bed1-20deee32bfc4" x1="575.96" y1="109.89" x2="575.96" y2="371.47" xlink:href="#bd163c39-3a6e-4121-a2dc-76bcb364b423"/>
    <linearGradient id="b823406d-1537-41f2-b381-f2e331fccc91" x1="560.41" y1="483.38" x2="560.41" y2="86.31" xlink:href="#b5259bb1-ba51-4dcc-897c-298f85261faa"/>
    <linearGradient id="f9f43bb7-e509-4887-a15d-0e54658d5a97" x1="687.57" y1="482.48" x2="687.57" y2="88.65" gradientUnits="userSpaceOnUse">
      <stop offset="0" stop-color="#00ffd9"/>
      <stop offset="1" stop-color="#00fa73"/>
    </linearGradient>
    <linearGradient id="ad9aa15d-ee64-446f-b4a2-f7d4b2fe6547" x1="955.73" y1="558.6" x2="955.73" y2="164.78" gradientTransform="rotate(-.92 957.33 223.177)" xlink:href="#f9f43bb7-e509-4887-a15d-0e54658d5a97"/>
    <linearGradient id="ad2ca88d-b5b2-46e1-bace-10e6a427e549" x1="879.1" y1="482.48" x2="879.1" y2="88.65" xlink:href="#f9f43bb7-e509-4887-a15d-0e54658d5a97"/>
    <linearGradient id="e25214e0-a076-40bb-a921-4fc52d85d6f6" x1="560.41" y1="482.48" x2="560.41" y2="88.65" xlink:href="#f9f43bb7-e509-4887-a15d-0e54658d5a97"/>
    <linearGradient id="b47d58c7-30ab-4aa8-8e72-60212de955ea" x1="590.14" y1="482.48" x2="590.14" y2="88.65" xlink:href="#f9f43bb7-e509-4887-a15d-0e54658d5a97"/>
    <linearGradient id="a5693748-ad4b-4f0e-be64-d3dc06b8ed68" x1="575.43" y1="482.48" x2="575.43" y2="88.65" xlink:href="#f9f43bb7-e509-4887-a15d-0e54658d5a97"/>
    <linearGradient id="ea87d709-8a7a-4dcc-a242-3a02ca8b9316" x1="637.89" y1="482.48" x2="637.89" y2="88.65" xlink:href="#f9f43bb7-e509-4887-a15d-0e54658d5a97"/>
    <linearGradient id="ac0fb480-15ac-4c3b-8b52-02b974ae91fb" x1="803.34" y1="482.48" x2="803.34" y2="88.65" xlink:href="#f9f43bb7-e509-4887-a15d-0e54658d5a97"/>
    <linearGradient id="ba3c84dc-75d8-413b-aa6f-a7298af0fe7e" x1="560.41" y1="482.48" x2="560.41" y2="88.65" xlink:href="#f9f43bb7-e509-4887-a15d-0e54658d5a97"/>
    <linearGradient id="f4e96c7f-c405-4cb0-af76-e28ac4da8989" x1="657.32" y1="378.98" x2="657.32" y2="40.86" xlink:href="#b34cdafc-aee4-43d3-95ad-d16ec2d6fe94"/>
    <linearGradient id="f19b1896-750a-47bb-8d42-ea402529d321" x1="766.3" y1="145.62" x2="766.3" y2="297.61" xlink:href="#a41e0e57-fb12-4657-a229-bb12d69830fa"/>
    <linearGradient id="ed37f682-8276-49c8-87b4-3ca8d49f1df6" x1="1525.48" y1="569.29" x2="1681.87" y2="569.29" xlink:href="#ee5666e5-16c0-4304-865d-8acf004d0962"/>
    <linearGradient id="b8467005-747d-42c6-a612-721e19a3bedd" x1="1601.78" y1="577.85" x2="1490.23" y2="577.85" xlink:href="#ee5666e5-16c0-4304-865d-8acf004d0962"/>
    <linearGradient id="a2717c05-fa57-4fed-ad16-7db5e47c78ec" x1="1485.9" y1="558.89" x2="1524.24" y2="558.89" xlink:href="#b5259bb1-ba51-4dcc-897c-298f85261faa"/>
    <linearGradient id="b4c7babc-cd98-4461-b804-cc13ae254ea9" x1="175.76" y1="555.59" x2="301.84" y2="555.59" xlink:href="#ee5666e5-16c0-4304-865d-8acf004d0962"/>
    <linearGradient id="ad6e707c-ff21-42f7-afa5-fe35fe24b24e" x1="175.76" y1="471.21" x2="301.84" y2="471.21" xlink:href="#ee5666e5-16c0-4304-865d-8acf004d0962"/>
    <linearGradient id="af1cca66-ac85-4a25-94cd-e8c0648aa719" x1="215.01" y1="339.94" x2="338.38" y2="339.94" gradientTransform="rotate(64.61 214.26 339.945)" gradientUnits="userSpaceOnUse">
      <stop offset="0" stop-color="#2c6a5d"/>
      <stop offset="1" stop-color="#3f9685"/>
    </linearGradient>
    <linearGradient id="bed5417f-5b55-4f7b-8267-bb30f3022067" x1="215.01" y1="334.36" x2="338.38" y2="334.36" gradientTransform="rotate(43.56 333.872 334.327)" xlink:href="#af1cca66-ac85-4a25-94cd-e8c0648aa719"/>
    <linearGradient id="f0edb70c-63a3-4657-adef-79310eb1406a" x1="215.01" y1="278.22" x2="338.38" y2="278.22" gradientTransform="rotate(4.2 322.884 278.31)" xlink:href="#af1cca66-ac85-4a25-94cd-e8c0648aa719"/>
    <linearGradient id="b9f44534-5b70-4b84-91e9-42651bbc7bd2" x1="215.01" y1="393.48" x2="338.38" y2="393.48" xlink:href="#af1cca66-ac85-4a25-94cd-e8c0648aa719"/>
    <style>
      .b6e0c8f6-37e9-46ae-a2bf-3fada2f17050,.be6c708e-a1a0-4cce-9b59-94dd872085fb,.eabb749a-1421-4c0b-a287-c64b569a11d2{mix-blend-mode:multiply}.a2ba12fb-5afb-47b3-baaf-4c58051be04e{fill:#1e122c}.baf76668-2dda-42fa-9337-2da3499af048{fill:#4e3972}.added99c-f0cf-4c92-9964-ed66e25805dc{fill:#ddd8ff}.b6e0c8f6-37e9-46ae-a2bf-3fada2f17050,.e8744ecb-41d7-455b-be14-d246a283128f{fill:#3d2855}.eabb749a-1421-4c0b-a287-c64b569a11d2{fill:#180042;opacity:.5}.be75b6f3-048a-41d2-946f-0fa29401c2f0{fill:#ff9b7f}.b0b064f0-cb55-4751-b859-707f8497e12b{fill:#ff7852}.b56310c2-8cd1-40a4-b628-ead35852abb1{fill:#51a2ff}.a4adbdc5-9644-4d31-913f-09e0936192db{fill:#fff;opacity:.11}.fc04980c-d520-4512-9d61-575392c00c86{fill:#1b0b2e;opacity:.62}.be6c708e-a1a0-4cce-9b59-94dd872085fb{opacity:.35}.b6e0c8f6-37e9-46ae-a2bf-3fada2f17050{opacity:.36}.be6c708e-a1a0-4cce-9b59-94dd872085fb{fill:#2c6a5d}.f81e0537-e29f-49fa-bcaf-08fd65acbc6e{fill:#22574c}
    </style>
  </defs>
  <g style="isolation:isolate">
    <g id="bee1fb49-8ddb-470c-b923-ad5dc6468584" data-name="Layer 1">
      <path d="M1414.74 829.25H419.06c-21.68 0-36.4-32-23.15-50.86l178.72-254.65h684.54l178.73 254.65c13.25 18.88-1.47 50.86-23.16 50.86z" transform="translate(-150.6 -76.12)" style="mix-blend-mode:multiply" fill="#5b5b5b" opacity=".22"/>
      <path class="a2ba12fb-5afb-47b3-baaf-4c58051be04e" d="M394.7 721.27V730a12 12 0 0012 12h1020.36a12.05 12.05 0 0012-12v-8.73s-244.25-21.53-257.78-21.53-525.47-2.54-569.47-4.23-217.11 25.76-217.11 25.76z" transform="translate(-150.6 -76.12)"/>
      <path fill="url(#a41e0e57-fb12-4657-a229-bb12d69830fa)" d="M1288.5 645.15H244.09l179.94-197.53h684.54l179.93 197.53z"/>
      <path d="M441 0h650.53a17 17 0 0117 17v426.7a14.92 14.92 0 01-14.92 14.92H438.95A14.92 14.92 0 01424 443.7V17a17 17 0 0117-17z" fill="#080211"/>
      <circle cx="766.3" cy="12.8" r="6.94" fill="url(#a766e271-3ea5-4146-888b-0db19c7403ef)"/>
      <path fill="#65418e" d="M1288.5 645.15H244.09l179.94-197.53h684.54l179.93 197.53z"/>
      <path opacity=".46" fill="url(#b830e5f5-0a4d-40c5-b990-73a3e5eaf1d3)" d="M1288.5 645.15H244.09l179.94-197.53h684.54l179.93 197.53z"/>
      <path fill="#10002f" d="M1110.9 544.16H421.7l51.61-72.92h585.98l51.61 72.92z"/>
      <path class="baf76668-2dda-42fa-9337-2da3499af048" d="M1148.24 718.74H685.56a7.63 7.63 0 01-7-10.69l35.56-81a7.61 7.61 0 017-4.56h391.58a7.63 7.63 0 017 4.56l35.55 81a7.62 7.62 0 01-7.01 10.69z" transform="translate(-150.6 -76.12)"/>
      <path fill="url(#b6c771d0-ee21-43d8-b5eb-6dc4efe5e196)" d="M496.99 486.4h-32.75l8.81-12.58h31.79l-7.85 12.58z"/>
      <path fill="url(#b85573af-9281-4def-a0fc-aa84f7fac12c)" d="M507.21 502.95h-54.57l9.49-13.54h52.92l-7.84 13.54z"/>
      <path fill="url(#f7fa8c60-b1ff-4b2c-96d3-b0053095cb04)" d="M533.17 486.4h-32.75l7.76-12.58h31.79l-6.8 12.58z"/>
      <path fill="url(#b4029c98-f06c-4b49-8347-dea51593b369)" d="M544.79 502.95h-34.01l7.74-13.54h32.97l-6.7 13.54z"/>
      <path fill="url(#e91b213b-f8e4-4a77-a08a-a4ca9cafca01)" d="M582.37 502.95h-34.01l6.59-13.54h32.98l-5.56 13.54z"/>
      <path fill="url(#f7a14226-0735-494d-8430-0790b0441a93)" d="M619.94 502.95h-34.01l5.46-13.54h32.98l-4.43 13.54z"/>
      <path fill="url(#ee75334e-ce47-4349-bbc0-f738acbcabb8)" d="M657.52 502.95h-34.01l4.32-13.54h32.98l-3.29 13.54z"/>
      <path fill="url(#bddcd62e-cdbf-49ba-b928-dc1f6643d208)" d="M695.09 502.95h-34l3.18-13.54h32.97l-2.15 13.54z"/>
      <path fill="url(#e183f6cf-10be-46e8-a92f-fd3b2f5b643b)" d="M732.67 502.95h-34.01l2.05-13.54h32.97l-1.01 13.54z"/>
      <path fill="url(#e9857693-5a31-42d5-948c-5d1bf14e55a6)" d="M770.24 502.95h-34l.9-13.54h32.98l.12 13.54z"/>
      <path fill="url(#eb5fe06d-1464-44bb-a75a-e164261b0bef)" d="M807.82 502.95h-34.01l-.23-13.54h32.98l1.26 13.54z"/>
      <path fill="url(#af5ced16-b13d-487b-aca4-8cea66e48c42)" d="M845.39 502.95h-34l-1.37-13.54H843l2.39 13.54z"/>
      <path fill="url(#bcf1e1d7-5dff-47a0-83bc-a7d8a7103cc4)" d="M882.97 502.95h-34.01l-2.5-13.54h32.97l3.54 13.54z"/>
      <path fill="url(#b7eba741-dc96-401b-ab75-0866509e9d23)" d="M920.54 502.95h-34l-3.64-13.54h32.97l4.67 13.54z"/>
      <path fill="url(#bd0e002b-213f-4e1a-afe8-b69f5cbeea55)" d="M958.12 502.95h-34.01l-4.78-13.54h32.98l5.81 13.54z"/>
      <path fill="url(#ab037e76-80e2-46f4-a539-d467a3e6069e)" d="M995.69 502.95h-34l-5.92-13.54h32.98l6.94 13.54z"/>
      <path fill="url(#be19f9bb-6e8b-4389-90ab-6aa9b65d7e14)" d="M1033.27 502.95h-34.01l-7.05-13.54h32.98l8.08 13.54z"/>
      <path fill="url(#bb84ec48-6aee-422e-9e0d-d83f2560a4b9)" d="M1078.59 502.95h-41.75l-8.19-13.54h40.48l9.46 13.54z"/>
      <path fill="url(#e1dfd4af-3408-46e1-a492-1e82efe958a7)" d="M569.36 486.4h-32.75l6.7-12.58h31.79l-5.74 12.58z"/>
      <path fill="url(#f8705f00-4dea-4f3e-8f6b-efe263e1cbe3)" d="M605.54 486.4h-32.75l5.65-12.58h31.79l-4.69 12.58z"/>
      <path fill="url(#a269207b-d9d3-40ec-a14f-d02d59267f06)" d="M641.73 486.4h-32.75l4.59-12.58h31.79l-3.63 12.58z"/>
      <path fill="url(#a639ffb3-16d8-43a7-b4b9-cb45d9536fcc)" d="M677.91 486.4h-32.75l3.54-12.58h31.79l-2.58 12.58z"/>
      <path fill="url(#e2d846fd-27ab-401f-9d1a-805579805868)" d="M714.1 486.4h-32.75l2.48-12.58h31.79l-1.52 12.58z"/>
      <path fill="url(#b516778f-1731-4cfa-992f-9e2aa94b827b)" d="M750.28 486.4h-32.75l1.43-12.58h31.79l-.47 12.58z"/>
      <path fill="url(#ad9fcd1a-ca0c-4df0-a689-e8e53459c559)" d="M786.47 486.4h-32.75l.36-12.58h31.8l.59 12.58z"/>
      <path fill="url(#eb08f77e-bcf2-4d20-ae8c-09869ca3b3b3)" d="M822.65 486.4H789.9l-.69-12.58h31.8l1.64 12.58z"/>
      <path fill="url(#b484e8fb-3d32-49fb-b3e2-96fa011da403)" d="M858.84 486.4h-32.75l-1.75-12.58h31.79l2.71 12.58z"/>
      <path fill="url(#be38eb47-4a7b-4bf1-ab0d-4ad531e41e76)" d="M895.02 486.4h-32.75l-2.8-12.58h31.79l3.76 12.58z"/>
      <path fill="url(#b2fb2e3b-96ef-41fb-9231-ef8a69d686ae)" d="M931.21 486.4h-32.75l-3.86-12.58h31.79l4.82 12.58z"/>
      <path fill="url(#a06d9e0b-fad9-4451-b679-9d99a58b3014)" d="M967.39 486.4h-32.74l-4.92-12.58h31.79l5.87 12.58z"/>
      <path fill="url(#e2b9d7c6-25e0-465f-9e72-a238c42f2411)" d="M1003.58 486.4h-32.75l-5.97-12.58h31.79l6.93 12.58z"/>
      <path fill="url(#a8435535-43ea-4675-9047-bb15342fec7f)" d="M1068.35 486.4h-61.33l-7.03-12.58h59.54l8.82 12.58z"/>
      <path fill="url(#a6644403-2857-4eaf-8897-ffe9a594ab87)" d="M475.89 520.16h-35.32l10.23-14.59H485l-9.11 14.59z"/>
      <path fill="url(#b3f64e98-d18b-4a09-bf48-e689528ed73d)" d="M514.91 520.16H479.6l9-14.59h34.2l-7.89 14.59z"/>
      <path fill="url(#f5119193-3032-494e-83f2-bba94892c819)" d="M553.93 520.16h-35.31l7.77-14.59h34.21l-6.67 14.59z"/>
      <path fill="url(#ba5c7a04-c076-42aa-b947-42dc0c4775d8)" d="M592.95 520.16h-35.31l6.55-14.59h34.2l-5.44 14.59z"/>
      <path fill="url(#bef1186e-dc45-46ea-b8c8-9ab7750900b4)" d="M631.97 520.16h-35.31l5.32-14.59h34.21l-4.22 14.59z"/>
      <path fill="url(#e2bd3348-312c-460b-9bf0-3f5849b1a0a8)" d="M670.99 520.16h-35.31l4.1-14.59h34.2l-2.99 14.59z"/>
      <path fill="url(#a10d15f6-f0b3-4446-adf6-483d569747dc)" d="M710.01 520.16H674.7l2.87-14.59h34.21l-1.77 14.59z"/>
      <path fill="url(#b1b74b0c-fbd5-453b-be33-93e874388286)" d="M749.03 520.16h-35.31l1.65-14.59h34.2l-.54 14.59z"/>
      <path fill="url(#ebf39c98-bf1f-45ec-b50c-6d683545c56e)" d="M788.05 520.16h-35.31l.42-14.59h34.21l.68 14.59z"/>
      <path fill="url(#ac650b79-8133-4ed3-bf59-7d37a0cf3475)" d="M827.07 520.16h-35.31l-.8-14.59h34.2l1.91 14.59z"/>
      <path fill="url(#b052406b-37b1-4ae8-912c-a1e00669baf3)" d="M866.1 520.16h-35.32l-2.03-14.59h34.21l3.14 14.59z"/>
      <path fill="url(#f042997e-87e4-428a-a1ed-658e81683166)" d="M905.12 520.16H869.8l-3.25-14.59h34.2l4.37 14.59z"/>
      <path fill="url(#aec1bb8b-de68-4101-b615-c4ba2a95d584)" d="M944.14 520.16h-35.32l-4.47-14.59h34.2l5.59 14.59z"/>
      <path fill="url(#f1cb4a4c-fd4a-462a-b3b1-017e25e0c41b)" d="M983.16 520.16h-35.32l-5.7-14.59h34.21l6.81 14.59z"/>
      <path fill="url(#b0bb601b-2a96-4560-a5ae-6319ec708605)" d="M1022.18 520.16h-35.32l-6.92-14.59h34.2l8.04 14.59z"/>
      <path fill="url(#faf72484-4de0-4b72-9a1c-e9f978506e1a)" d="M1092.02 520.16h-66.14l-8.15-14.59h64.06l10.23 14.59z"/>
      <path fill="url(#a1f036fb-2c5b-4d28-988c-e28c4459b607)" d="M463.25 540.38H426.4l11.12-15.86h35.65l-9.92 15.86z"/>
      <path fill="url(#b45a69c1-3b72-4b1a-8f8c-15771953573a)" d="M503.97 540.38h-36.85l9.79-15.86h35.64l-8.58 15.86z"/>
      <path fill="url(#af67e049-6935-4765-b832-832d8236e93c)" d="M544.69 540.38h-36.85l8.45-15.86h35.65l-7.25 15.86z"/>
      <path fill="url(#ec66172b-8c4a-4098-93d3-f1787bed1bd7)" d="M585.41 540.38h-36.85l7.12-15.86h35.65l-5.92 15.86z"/>
      <path fill="url(#bd0eb42b-ce44-469b-8cb3-fa498350bd3a)" d="M911.16 540.38h-36.85l-3.54-15.86h35.65l4.74 15.86z"/>
      <path fill="url(#b44563c0-f27c-4a71-ac44-bcf3a0a06886)" d="M951.88 540.38h-36.85l-4.87-15.86h35.64l6.08 15.86z"/>
      <path fill="url(#b1c2e5e0-0ebc-4cf7-842c-d3758a957e29)" d="M992.6 540.38h-36.85l-6.2-15.86h35.64l7.41 15.86z"/>
      <path fill="url(#f90f2d3f-7c6e-4857-a587-3920052a75c3)" d="M1033.32 540.38h-36.85l-7.54-15.86h35.65l8.74 15.86z"/>
      <path fill="url(#a4458e87-efa2-44f4-909a-a6500eab1444)" d="M1074.5 540.38h-38.32l-7.53-15.86h35.64l10.21 15.86z"/>
      <path fill="url(#e8c2f410-18ed-4205-a08a-e54bf7d5520e)" d="M1106.2 540.38h-27.6l-10.22-15.86h26.69l11.13 15.86z"/>
      <path fill="url(#a26b831a-38c2-41ef-9538-c4a6284aace8)" d="M869.43 540.38H589.28l5.79-15.86h270.99l3.37 15.86z"/>
      <path class="added99c-f0cf-4c92-9964-ed66e25805dc" d="M496.99 485.11h-32.75l8.81-12.57h31.79l-7.85 12.57zM507.21 501.66h-54.57l9.49-13.54h52.92l-7.84 13.54zM533.17 485.11h-32.75l7.76-12.57h31.79l-6.8 12.57zM544.79 501.66h-34.01l7.74-13.54h32.97l-6.7 13.54zM582.37 501.66h-34.01l6.59-13.54h32.98l-5.56 13.54zM619.94 501.66h-34.01l5.46-13.54h32.98l-4.43 13.54zM657.52 501.66h-34.01l4.32-13.54h32.98l-3.29 13.54zM695.09 501.66h-34l3.18-13.54h32.97l-2.15 13.54zM732.67 501.66h-34.01l2.05-13.54h32.97l-1.01 13.54zM770.24 501.66h-34l.9-13.54h32.98l.12 13.54zM807.82 501.66h-34.01l-.23-13.54h32.98l1.26 13.54zM845.39 501.66h-34l-1.37-13.54H843l2.39 13.54zM882.97 501.66h-34.01l-2.5-13.54h32.97l3.54 13.54zM920.54 501.66h-34l-3.64-13.54h32.97l4.67 13.54zM958.12 501.66h-34.01l-4.78-13.54h32.98l5.81 13.54zM995.69 501.66h-34l-5.92-13.54h32.98l6.94 13.54zM1033.27 501.66h-34.01l-7.05-13.54h32.98l8.08 13.54zM1078.59 501.66h-41.75l-8.19-13.54h40.48l9.46 13.54zM569.36 485.11h-32.75l6.7-12.57h31.79l-5.74 12.57zM605.54 485.11h-32.75l5.65-12.57h31.79l-4.69 12.57zM641.73 485.11h-32.75l4.59-12.57h31.79l-3.63 12.57zM677.91 485.11h-32.75l3.54-12.57h31.79l-2.58 12.57zM714.1 485.11h-32.75l2.48-12.57h31.79l-1.52 12.57zM750.28 485.11h-32.75l1.43-12.57h31.79l-.47 12.57zM786.47 485.11h-32.75l.36-12.57h31.8l.59 12.57zM822.65 485.11H789.9l-.69-12.57h31.8l1.64 12.57zM858.84 485.11h-32.75l-1.75-12.57h31.79l2.71 12.57zM895.02 485.11h-32.75l-2.8-12.57h31.79l3.76 12.57zM931.21 485.11h-32.75l-3.86-12.57h31.79l4.82 12.57zM967.39 485.11h-32.74l-4.92-12.57h31.79l5.87 12.57zM1003.58 485.11h-32.75l-5.97-12.57h31.79l6.93 12.57zM1068.35 485.11h-61.33l-7.03-12.57h59.54l8.82 12.57zM475.89 518.87h-35.32l10.23-14.58H485l-9.11 14.58zM514.91 518.87H479.6l9-14.58h34.2l-7.89 14.58zM553.93 518.87h-35.31l7.77-14.58h34.21l-6.67 14.58zM592.95 518.87h-35.31l6.55-14.58h34.2l-5.44 14.58zM631.97 518.87h-35.31l5.32-14.58h34.21l-4.22 14.58zM670.99 518.87h-35.31l4.1-14.58h34.2l-2.99 14.58zM710.01 518.87H674.7l2.87-14.58h34.21l-1.77 14.58zM749.03 518.87h-35.31l1.65-14.58h34.2l-.54 14.58zM788.05 518.87h-35.31l.42-14.58h34.21l.68 14.58zM827.07 518.87h-35.31l-.8-14.58h34.2l1.91 14.58zM866.1 518.87h-35.32l-2.03-14.58h34.21l3.14 14.58zM905.12 518.87H869.8l-3.25-14.58h34.2l4.37 14.58zM944.14 518.87h-35.32l-4.47-14.58h34.2l5.59 14.58zM983.16 518.87h-35.32l-5.7-14.58h34.21l6.81 14.58zM1022.18 518.87h-35.32l-6.92-14.58h34.2l8.04 14.58zM1092.02 518.87h-66.14l-8.15-14.58h64.06l10.23 14.58zM463.25 539.1H426.4l11.12-15.87h35.65l-9.92 15.87zM503.97 539.1h-36.85l9.79-15.87h35.64l-8.58 15.87zM544.69 539.1h-36.85l8.45-15.87h35.65l-7.25 15.87zM585.41 539.1h-36.85l7.12-15.87h35.65l-5.92 15.87zM911.16 539.1h-36.85l-3.54-15.87h35.65l4.74 15.87zM951.88 539.1h-36.85l-4.87-15.87h35.64l6.08 15.87zM992.6 539.1h-36.85l-6.2-15.87h35.64l7.41 15.87zM1033.32 539.1h-36.85l-7.54-15.87h35.65l8.74 15.87zM1074.5 539.1h-38.32l-7.53-15.87h35.64l10.21 15.87zM1106.2 539.1h-27.6l-10.22-15.87h26.69l11.13 15.87zM869.43 539.1H589.28l5.79-15.87h270.99l3.37 15.87z"/>
      <path class="e8744ecb-41d7-455b-be14-d246a283128f" d="M496.99 486.4h-32.75l8.81-12.58h31.79l-7.85 12.58zM507.21 502.95h-54.57l9.49-13.54h52.92l-7.84 13.54zM533.17 486.4h-32.75l7.76-12.58h31.79l-6.8 12.58zM544.79 502.95h-34.01l7.74-13.54h32.97l-6.7 13.54zM582.37 502.95h-34.01l6.59-13.54h32.98l-5.56 13.54zM619.94 502.95h-34.01l5.46-13.54h32.98l-4.43 13.54zM657.52 502.95h-34.01l4.32-13.54h32.98l-3.29 13.54zM695.09 502.95h-34l3.18-13.54h32.97l-2.15 13.54zM732.67 502.95h-34.01l2.05-13.54h32.97l-1.01 13.54zM770.24 502.95h-34l.9-13.54h32.98l.12 13.54zM807.82 502.95h-34.01l-.23-13.54h32.98l1.26 13.54zM845.39 502.95h-34l-1.37-13.54H843l2.39 13.54zM882.97 502.95h-34.01l-2.5-13.54h32.97l3.54 13.54zM920.54 502.95h-34l-3.64-13.54h32.97l4.67 13.54zM958.12 502.95h-34.01l-4.78-13.54h32.98l5.81 13.54zM995.69 502.95h-34l-5.92-13.54h32.98l6.94 13.54zM1033.27 502.95h-34.01l-7.05-13.54h32.98l8.08 13.54zM1078.59 502.95h-41.75l-8.19-13.54h40.48l9.46 13.54zM569.36 486.4h-32.75l6.7-12.58h31.79l-5.74 12.58zM605.54 486.4h-32.75l5.65-12.58h31.79l-4.69 12.58zM641.73 486.4h-32.75l4.59-12.58h31.79l-3.63 12.58zM677.91 486.4h-32.75l3.54-12.58h31.79l-2.58 12.58zM714.1 486.4h-32.75l2.48-12.58h31.79l-1.52 12.58zM750.28 486.4h-32.75l1.43-12.58h31.79l-.47 12.58zM786.47 486.4h-32.75l.36-12.58h31.8l.59 12.58zM822.65 486.4H789.9l-.69-12.58h31.8l1.64 12.58zM858.84 486.4h-32.75l-1.75-12.58h31.79l2.71 12.58zM895.02 486.4h-32.75l-2.8-12.58h31.79l3.76 12.58zM931.21 486.4h-32.75l-3.86-12.58h31.79l4.82 12.58zM967.39 486.4h-32.74l-4.92-12.58h31.79l5.87 12.58zM1003.58 486.4h-32.75l-5.97-12.58h31.79l6.93 12.58zM1068.35 486.4h-61.33l-7.03-12.58h59.54l8.82 12.58zM475.89 520.16h-35.32l10.23-14.59H485l-9.11 14.59zM514.91 520.16H479.6l9-14.59h34.2l-7.89 14.59zM553.93 520.16h-35.31l7.77-14.59h34.21l-6.67 14.59zM592.95 520.16h-35.31l6.55-14.59h34.2l-5.44 14.59zM631.97 520.16h-35.31l5.32-14.59h34.21l-4.22 14.59zM670.99 520.16h-35.31l4.1-14.59h34.2l-2.99 14.59zM710.01 520.16H674.7l2.87-14.59h34.21l-1.77 14.59zM749.03 520.16h-35.31l1.65-14.59h34.2l-.54 14.59zM788.05 520.16h-35.31l.42-14.59h34.21l.68 14.59zM827.07 520.16h-35.31l-.8-14.59h34.2l1.91 14.59zM866.1 520.16h-35.32l-2.03-14.59h34.21l3.14 14.59zM905.12 520.16H869.8l-3.25-14.59h34.2l4.37 14.59zM944.14 520.16h-35.32l-4.47-14.59h34.2l5.59 14.59zM983.16 520.16h-35.32l-5.7-14.59h34.21l6.81 14.59zM1022.18 520.16h-35.32l-6.92-14.59h34.2l8.04 14.59zM1092.02 520.16h-66.14l-8.15-14.59h64.06l10.23 14.59zM463.25 540.38H426.4l11.12-15.86h35.65l-9.92 15.86zM503.97 540.38h-36.85l9.79-15.86h35.64l-8.58 15.86zM544.69 540.38h-36.85l8.45-15.86h35.65l-7.25 15.86zM585.41 540.38h-36.85l7.12-15.86h35.65l-5.92 15.86zM911.16 540.38h-36.85l-3.54-15.86h35.65l4.74 15.86zM951.88 540.38h-36.85l-4.87-15.86h35.64l6.08 15.86zM992.6 540.38h-36.85l-6.2-15.86h35.64l7.41 15.86zM1033.32 540.38h-36.85l-7.54-15.86h35.65l8.74 15.86zM1074.5 540.38h-38.32l-7.53-15.86h35.64l10.21 15.86zM1106.2 540.38h-27.6l-10.22-15.86h26.69l11.13 15.86zM869.43 540.38H589.28l5.79-15.86h270.99l3.37 15.86z"/>
      <path class="a2ba12fb-5afb-47b3-baaf-4c58051be04e" d="M985.1 729.13H848.71a7.85 7.85 0 01-7.85-7.86 7.85 7.85 0 017.85-7.85H985.1a7.86 7.86 0 017.85 7.85 7.86 7.86 0 01-7.85 7.86z" transform="translate(-150.6 -76.12)"/>
      <rect x="581.76" y="437.71" width="369.07" height="19.82" rx="9.12" fill="url(#b1044b2f-a8b8-46f2-a44a-c5996cf1b282)"/>
      <path class="added99c-f0cf-4c92-9964-ed66e25805dc" d="M402.49 721.07l4.84-.05 13.66-.13 21.23-.16c8.2-.07 17.44-.13 27.53-.18l32.58-.15 36.36-.12h119.18l38.88.09 68.94.27c10.09 0 19.34.12 27.54.17l21.23.15 18.49.16v.41l-18.49.16-21.23.15c-8.2.05-17.45.13-27.54.16l-68.94.28-38.88.09H538.69l-36.36-.12-32.58-.25c-10.09 0-19.33-.11-27.53-.18l-21.22-.16-13.66-.13h-4.84zM997.06 721.07l4.83-.05 13.67-.13 21.23-.16c8.19-.07 17.44-.13 27.53-.18l32.58-.15 36.36-.12h119.17l38.89.09 68.94.27c10.09 0 19.34.12 27.53.17l21.23.15 18.5.16v.41l-18.5.16-21.23.15c-8.19.05-17.44.13-27.53.16l-68.94.28-38.89.09H1133.26l-36.36-.12-32.58-.15c-10.09 0-19.34-.11-27.53-.18l-21.23-.16-13.67-.13h-4.83z" transform="translate(-150.6 -76.12)"/>
      <path class="eabb749a-1421-4c0b-a287-c64b569a11d2" d="M811.69 579.43s14.12 29.52 12.89 53.76-23.4 49.63-84.7 62.24S633.07 723 630.2 722.34s-39-51.72-39-51.72l26.54-45S601.51 611 667.59 589l66.09-22zM1026.09 579.43s-6.11 29.52-4.88 53.76 23.4 49.63 84.7 62.24 106.82 27.57 109.69 26.91 39-51.72 39-51.72l-26.55-45S1244.29 611 1178.2 589l-66.08-22z" transform="translate(-150.6 -76.12)"/>
      <path class="be75b6f3-048a-41d2-946f-0fa29401c2f0" d="M639.23 683.73s71.33-12.24 91.74-20.86 37.18-3.63 53.51-5 34.46-10.88 27.66-26.3-31.14-20.85-53.91-15.86-45.9-5-42.47-5.44S745 588.05 746.6 581.7c5.68.91 22.46-1.81 26.54-2.27 5.9 1.82 18.6 11.79 25.85 10.43s12.24-6.35 12.7-10.43-32.5-32.53-43-33l-10.51-.51s-19.44-36.49-38.59-34.92-27 14.39-27 14.39-11.26-13.48-20.92-9.28-20.19 22.54-20.19 22.54-14.69 0-21.2 1.83-19.06 27.19-20.42 29-71.65 52.4-75.28 55 71.42-13.76 104.65 59.25z" transform="translate(-150.6 -76.12)"/>
      <path class="b0b064f0-cb55-4751-b859-707f8497e12b" d="M639.23 683.73s71.33-12.24 91.74-20.86 37.18-3.63 53.51-5c15.66-1.3 33-10.12 28.36-24.45-9.05 11.1-25.68 1.52-29.22-.24-4.11 7.11-15.35 9.73-32.5 11.61s-31.53 4.49-52.5 8.06-51.31.17-57.3-6.57c-1.82 3.87-10.15 9.82-16.4 13.89a111.3 111.3 0 0114.31 23.56zM715.42 610.46c0-.1.12-.16.34-.19 3.42-.45 29.25-22.22 30.84-28.57 5.68.91 22.46-1.81 26.54-2.27 5.9 1.82 18.6 11.79 25.85 10.43s12.24-6.35 12.7-10.43c0 0-22.82 6.2-27.69 3.2s-6.37-13.11-6.37-13.11-24.34 11.61-28.46 9.37a28.27 28.27 0 01-6-4.12s-1.12 12-11.23 15-30 13.85-30 13.85a63 63 0 0013.48 6.84zM702 547.93s16.78-21.84 28.28-20.69 22.29 19.08 20.68 19.31-8 .46-13.56 1.38-35.4 0-35.4 0zM692.62 525.36s-14.07 16.37-29.93 20.5c5.06-3.45 29.93-20.5 29.93-20.5zM651.2 540.35s-8.74 17.24-23.91 20.23c5.97-4.14 23.91-20.23 23.91-20.23z" transform="translate(-150.6 -76.12)"/>
      <path d="M526.35 970c8.85-28.91 70.18-223.64 127.65-270 0 0-3.89-92.43-134.39-78.69-48.89 50.76-206.95 220.44-247 348.65z" transform="translate(-150.6 -76.12)" fill="url(#ef87451d-edae-420a-86dc-06cece524b71)"/>
      <path d="M603.91 631.16a398.3 398.3 0 01-.67 76.35C597 764.11 484 943.73 418.78 970h107.57c8.85-28.91 70.18-223.64 127.65-270 0 0-2-46.78-50.09-68.84z" transform="translate(-150.6 -76.12)" style="mix-blend-mode:multiply" fill="url(#ee5666e5-16c0-4304-865d-8acf004d0962)" opacity=".57"/>
      <path d="M810.25 646.85c.17-.21.35-.42.51-.64l.21-.29.49-.71.12-.22a13.35 13.35 0 001.89-5.1 1.22 1.22 0 010-.17c0-.3 0-.6.07-.9v-.32-.86-.39c0-.13-.05-.56-.08-.84s0-.3-.06-.45-.1-.55-.16-.83-.06-.33-.1-.5-.15-.55-.23-.83c0-.12-.06-.24-.11-.37a19.42 19.42 0 00-.7-1.86c-6.8-15.42-31.19-20.86-53.91-15.87-21.29 4.67-43-3.79-42.81-5.25 0 0 0-.07.08-.1a.68.68 0 01.25-.07c3.42-.45 29.25-22.22 30.84-28.57a39.27 39.27 0 007.85 0l2-.17c1.33-.12 2.7-.27 4.05-.42l2-.24c2-.25 3.91-.51 5.58-.73l1.59-.22 1.4-.19 2.08-.27c3 .91 7.6 3.86 12.42 6.41 1.5.79 3 1.55 4.52 2.2.59.26 1.19.5 1.77.71a14 14 0 007.14 1.11c7.26-1.36 12.24-6.35 12.7-10.43s-32.5-32.53-43-33l-10.51-.51s-19.4-36.53-38.55-34.96-27 14.39-27 14.39-11.26-13.48-20.92-9.28-20.19 22.54-20.19 22.54-14.69 0-21.2 1.83-19.06 27.19-20.42 29c-1.14 1.52-51 37.53-69 50.5-6.69.12-13.75.55-21.25 1.34-48.89 50.76-206.95 220.44-247 348.65h253.74C535.2 941.09 596.53 746.36 654 700a73.15 73.15 0 00-3.88-18.2c11.34-2.07 29.78-5.58 46.71-9.39l3.81-.87c3.78-.88 7.44-1.76 10.89-2.65 6.34-1.62 12-3.24 16.24-4.77l1.13-.42c.73-.28 1.42-.55 2.06-.82a65 65 0 0119.9-4.88 118.43 118.43 0 0114.9-.21l3.19.12a127.65 127.65 0 0015.53 0l1.5-.14.51-.07 1-.13.62-.09.89-.15.66-.12.85-.16.69-.15.8-.18.71-.17.78-.2.71-.2.75-.21.72-.23.73-.23.71-.25.7-.25.71-.27.67-.27.71-.3.64-.28.7-.33.6-.3c.24-.11.46-.23.69-.35l.57-.31.68-.38.53-.32.66-.41.5-.33c.21-.15.43-.29.63-.44l.46-.34.62-.48.41-.34c.2-.17.4-.33.59-.51l.38-.34.56-.54c.11-.12.22-.23.32-.35s.37-.39.54-.58z" transform="translate(-150.6 -76.12)" fill="url(#a256bb00-9238-4eea-bf80-c76af48750d8)" opacity=".32"/>
      <path class="added99c-f0cf-4c92-9964-ed66e25805dc" d="M758.23 615.71c-16.29 3.58-32.79-.53-39.58-3.32-1.36.9 18.29 11.64 39.58 7 22.72-5 47.11.46 53.91 15.87a19.42 19.42 0 01.7 1.86c0 .13.07.25.11.37.08.28.16.56.23.84s.07.32.1.49.12.56.16.83a2.3 2.3 0 010 .26v-.14c0-.3 0-.6.07-.9v-.32-.86-.39c0-.13-.05-.56-.08-.84s0-.3-.06-.45-.1-.55-.16-.83-.06-.33-.1-.5-.15-.55-.23-.83c0-.12-.06-.24-.11-.37a19.42 19.42 0 00-.7-1.86c-6.73-15.46-31.07-20.9-53.84-15.91zM519.62 624.94c7.5-.79 14.56-1.22 21.25-1.34 18-13 67.88-49 69-50.5 1.36-1.82 13.91-27.15 20.42-29s21.2-1.84 21.2-1.84 10.54-18.33 20.19-22.54 20.94 9.28 20.94 9.28 7.82-12.86 27-14.39 38.59 31.27 38.59 31.27 1.25 1.62 11.76 2.13c9.61.47 36.71 26.31 41.15 33.5a7.29 7.29 0 00.6-2.08c.45-4.08-32.5-32.53-43-33l-10.51-.51s-19.47-36.49-38.62-34.92-27 14.39-27 14.39-11.26-13.48-20.92-9.28-20.19 22.54-20.19 22.54-14.69 0-21.2 1.83-19.06 27.19-20.42 29c-1.14 1.52-51 37.53-69 50.5-6.69.12-13.75.55-21.25 1.34-48.88 50.74-48.42 53.9.01 3.62z" transform="translate(-150.6 -76.12)"/>
      <path class="be75b6f3-048a-41d2-946f-0fa29401c2f0" d="M1198.55 683.73s-71.33-12.24-91.74-20.86-37.19-3.63-53.51-5-34.46-10.88-27.66-26.3 31.18-20.86 53.91-15.87 45.9-5 42.47-5.44-29.25-22.22-30.84-28.57c-5.68.91-22.46-1.81-26.54-2.27-5.9 1.82-18.6 11.79-25.85 10.43s-12.25-6.35-12.7-10.43 32.5-32.53 43-33l10.51-.51s16.79-24.73 35.94-23.19 29.62 2.67 29.62 2.67a29.69 29.69 0 0118.49 1.63c9.66 4.21 22.61 11.63 22.61 11.63s14.7 0 21.21 1.83 19.06 27.19 20.42 29 71.65 52.4 75.28 55-71.38-13.76-104.62 59.25z" transform="translate(-150.6 -76.12)"/>
      <path class="b0b064f0-cb55-4751-b859-707f8497e12b" d="M1198.55 683.73s-71.33-12.24-91.74-20.86-37.19-3.63-53.51-5c-15.66-1.3-33-10.12-28.37-24.45 9.06 11.1 25.69 1.52 29.22-.24 4.12 7.11 15.36 9.73 32.5 11.61s31.54 4.49 52.51 8.06 51.31.17 57.3-6.57c1.82 3.87 10.15 9.82 16.4 13.89a111.3 111.3 0 00-14.31 23.56zM1122.36 610.46c0-.1-.12-.16-.34-.19-3.42-.45-29.25-22.22-30.84-28.57-5.68.91-22.46-1.81-26.54-2.27-5.9 1.82-18.6 11.79-25.85 10.43s-12.25-6.35-12.7-10.43c0 0 22.82 6.2 27.69 3.2s6.37-13.11 6.37-13.11 24.34 11.61 28.46 9.37a28.27 28.27 0 006-4.12s1.12 12 11.23 15 30 13.85 30 13.85a63 63 0 01-13.48 6.84zM1135.78 547.93s-16.78-13.47-28.28-12.32-22.29 10.71-20.69 10.94 8 .46 13.57 1.38 35.4 0 35.4 0zM1145.16 525.36s14.07 16.37 29.93 20.5c-5.09-3.45-29.93-20.5-29.93-20.5zM1186.58 540.35s8.74 17.24 23.91 20.23c-5.97-4.14-23.91-20.23-23.91-20.23z" transform="translate(-150.6 -76.12)"/>
      <path d="M1311.43 970h250.4c-43.65-130-194.78-297.89-243.67-348.65-130.5-13.79-134.39 78.65-134.39 78.65 57.47 46.36 118.81 241.09 127.66 270z" transform="translate(-150.6 -76.12)" fill="url(#a506345b-d8e8-4904-90b9-3169151f7bd7)"/>
      <path d="M1235.78 631.16a398.3 398.3 0 00.67 76.35c6.24 56.6 119.29 236.22 184.46 262.44h-107.57c-8.85-28.86-70.18-223.59-127.66-270 0 .05 1.98-46.73 50.1-68.79z" transform="translate(-150.6 -76.12)" style="mix-blend-mode:multiply" fill="url(#e1072dea-f4ee-46b7-98e2-a03d71c5670d)" opacity=".57"/>
      <path d="M1318.16 621.3c-7.5-.79-14.56-1.22-21.25-1.34-18-13-67.88-49-69-50.5-1.36-1.82-13.91-27.16-20.42-29s-21.21-1.83-21.21-1.83-13-7.42-22.61-11.63a29.69 29.69 0 00-18.49-1.63s-10.47-1.13-29.62-2.67-35.94 23.19-35.94 23.19l-10.51.51c-10.5.51-43.45 29-43 33s5.44 9.07 12.7 10.43 20-8.61 25.85-10.43l1.46.18c3.32.44 9.6 1.37 15.26 1.89 2.33.22 4.56.36 6.43.38h1.52a16 16 0 001.87-.16c1.59 6.35 27.42 28.12 30.84 28.57a.68.68 0 01.25.07.19.19 0 01.08.1c.17 1.46-21.52 9.92-42.81 5.25-22.73-5-47.11.45-53.91 15.87a19.42 19.42 0 00-.7 1.86c0 .13-.06.25-.1.37-.08.28-.16.56-.23.83s-.07.33-.11.5-.11.55-.15.83 0 .3-.06.45-.06.56-.08.84 0 .26 0 .39v1.18c0 .3 0 .6.07.9v.17a13.49 13.49 0 001.88 5.1 2.53 2.53 0 01.13.22l.49.71.21.29c.16.22.33.43.51.64l.27.33c.17.2.35.39.54.58s.21.23.32.34.37.37.56.55l.38.34c.19.18.39.34.58.51l.42.34.62.48.46.34c.2.15.42.29.63.44l.5.33.66.41.53.32.68.38.57.31c.23.12.45.24.69.35l.6.3.7.33.64.28.7.3.68.27.71.27.7.25.71.25.73.23.72.23.75.21.71.2.78.2.71.17.8.18.69.15.85.16.66.12.89.15.62.09 1 .13.5.07 1.51.14c16.32 1.36 33.1-3.62 53.51 5 15.45 6.52 60.06 15.12 80.84 18.92a73.15 73.15 0 00-3.88 18.2c57.47 46.37 118.81 241.1 127.66 270h250.4c-46.59-134.6-194.76-297.92-243.65-348.68z" transform="translate(-150.6 -76.12)" fill="url(#be7fd534-966f-45ae-829e-567a7d094c6a)" opacity=".32"/>
      <path class="added99c-f0cf-4c92-9964-ed66e25805dc" d="M1101 593.66c-3.24-3.4-5.6-6.4-6-8.19a14.43 14.43 0 01-1.47.14 81.21 81.21 0 007.47 8.05zM1031.26 586.73a8.24 8.24 0 01-1.4-3.53c-.45-4.08 32.5-32.53 43-33l10.5-.51s16.8-24.72 35.94-23.19 29.62 2.67 29.62 2.67a29.65 29.65 0 0118.49 1.64c9.66 4.2 22.62 11.62 22.62 11.62s14.69 0 21.2 1.84a5.32 5.32 0 011.61.84c-2-2.43-3.85-4.18-5.38-4.62-6.51-1.84-21.21-1.83-21.21-1.83s-13-7.42-22.61-11.63a29.69 29.69 0 00-18.49-1.63s-10.47-1.13-29.62-2.67-35.94 23.19-35.94 23.19l-10.51.51c-10.5.51-43.45 29-43 33 .28 2.43 2.17 5.18 5.18 7.3zM1231.66 573.23c1.14 1.52 48.23 35.52 66.23 48.49 6.64.12 21.41.76 20.27-.42-7.5-.79-14.56-1.22-21.25-1.34-15.57-11.22-55-39.68-66.09-48.14.4.71.69 1.18.84 1.41zM1030.79 650l-.21-.29c-.16-.24-.33-.47-.48-.71a2.53 2.53 0 01-.13-.22 13.18 13.18 0 01-1.88-5.09 1.13 1.13 0 010-.18c0-.29-.06-.6-.08-.9v-.32-.86-.39c0-.13 0-.56.09-.84s0-.3 0-.45.1-.55.16-.83.06-.33.1-.49.15-.56.23-.83l.11-.38a19.42 19.42 0 01.7-1.86c6.8-15.41 31.19-20.86 53.91-15.87 21.3 4.68 40.13-6.53 38-8.09-4.61 2.58-23.31 8.36-41.72 4.32-22.73-5-47.11.45-53.91 15.87a19.42 19.42 0 00-.7 1.86c0 .13-.06.25-.1.37-.08.28-.16.56-.23.83s-.07.33-.11.5-.11.55-.15.83 0 .3-.06.45-.06.56-.08.84 0 .26 0 .39v1.18c0 .3 0 .6.07.9v.17a13.49 13.49 0 001.88 5.1 2.53 2.53 0 01.13.22l.49.71.21.29c.16.22.33.43.51.64l.27.33c.17.2.35.39.54.58s.21.23.32.34.37.37.56.55l.38.34c.19.18.39.34.58.51l.42.34.2.16z" transform="translate(-150.6 -76.12)"/>
      <rect x="436.63" y="26.17" width="659.35" height="406.27" rx="3.25" fill="#6493c8"/>
      <rect class="baf76668-2dda-42fa-9337-2da3499af048" x="478.21" y="51.8" width="576.18" height="355.03" rx="2.84"/>
      <rect class="b56310c2-8cd1-40a4-b628-ead35852abb1" x="526.66" y="111.09" width="15.61" height="15.61" rx="2.7"/>
      <rect x="563.01" y="111.09" width="26.94" height="15.61" rx="2.7" fill="url(#b34cdafc-aee4-43d3-95ad-d16ec2d6fe94)"/>
      <rect x="785.88" y="111.09" width="39.01" height="15.61" rx="2.7" fill="url(#bd163c39-3a6e-4121-a2dc-76bcb364b423)"/>
      <rect x="831.72" y="111.09" width="94.49" height="15.61" rx="2.7" fill="url(#b5259bb1-ba51-4dcc-897c-298f85261faa)"/>
      <rect class="b56310c2-8cd1-40a4-b628-ead35852abb1" x="526.66" y="138.64" width="15.61" height="15.61" rx="2.7"/>
      <rect x="563.01" y="138.64" width="26.94" height="15.61" rx="2.7" fill="url(#eb8e01eb-62b8-49af-aeb1-311b7a6c3619)"/>
      <rect x="595.17" y="138.64" width="185.27" height="15.61" rx="2.7" fill="url(#b392e605-9cb9-45d2-8163-2d07570986d1)"/>
      <rect class="b56310c2-8cd1-40a4-b628-ead35852abb1" x="526.66" y="166.19" width="15.61" height="15.61" rx="2.7"/>
      <rect class="b56310c2-8cd1-40a4-b628-ead35852abb1" x="526.66" y="193.74" width="15.61" height="15.61" rx="2.7"/>
      <rect class="b56310c2-8cd1-40a4-b628-ead35852abb1" x="526.66" y="221.29" width="15.61" height="15.61" rx="2.7"/>
      <rect class="b56310c2-8cd1-40a4-b628-ead35852abb1" x="526.66" y="248.84" width="15.61" height="15.61" rx="2.7"/>
      <rect x="561.52" y="248.84" width="29.43" height="15.61" rx="2.7" fill="url(#aa446272-8812-4bac-97b1-88815a18484e)"/>
      <rect x="688.04" y="248.84" width="85.44" height="15.61" rx="2.7" fill="url(#a406fa38-4037-4870-9af0-531b18a82a5d)"/>
      <rect class="b56310c2-8cd1-40a4-b628-ead35852abb1" x="526.66" y="276.39" width="15.61" height="15.61" rx="2.7"/>
      <rect x="561.52" y="276.39" width="29.5" height="15.61" rx="2.7" fill="url(#b844ede3-98cc-47ac-b799-c4d7e33cbb6b)"/>
      <rect x="595.17" y="276.39" width="85.05" height="15.61" rx="2.7" fill="url(#bd7ab565-8920-4cd6-ae14-bae4c573d828)"/>
      <rect x="688.23" y="276.39" width="85.05" height="15.61" rx="2.7" fill="url(#e7aa37c1-a2c1-413d-bd6a-e87b27706152)"/>
      <rect x="780.91" y="276.39" width="44.52" height="15.61" rx="2.7" fill="url(#f2e733e7-3017-4753-a0f6-e6dd78183919)"/>
      <rect class="b56310c2-8cd1-40a4-b628-ead35852abb1" x="526.66" y="303.94" width="15.61" height="15.61" rx="2.7"/>
      <rect x="561.52" y="303.94" width="28.89" height="15.61" rx="2.7" fill="url(#e3c048ed-dcfa-406a-b606-862b79428895)"/>
      <rect x="595.17" y="303.94" width="85.35" height="15.61" rx="2.7" fill="url(#b615fd0e-5b80-473c-9340-21770d1b9ca0)"/>
      <rect x="688.08" y="303.94" width="85.35" height="15.61" rx="2.7" fill="url(#ad4dbefc-8d8b-4c14-92ca-cd4f35298b23)"/>
      <rect x="781.24" y="303.94" width="44.19" height="15.61" rx="2.7" fill="url(#e9b604a4-da44-431b-9926-4685d048a381)"/>
      <rect class="b56310c2-8cd1-40a4-b628-ead35852abb1" x="526.66" y="331.49" width="15.61" height="15.61" rx="2.7"/>
      <rect x="561.52" y="331.49" width="28.62" height="15.61" rx="2.7" fill="url(#b23c74c0-38c7-44ba-8ad0-bf178c309f83)"/>
      <rect class="b56310c2-8cd1-40a4-b628-ead35852abb1" x="526.66" y="359.04" width="15.61" height="15.61" rx="2.7"/>
      <rect x="561.52" y="359.04" width="28.89" height="15.61" rx="2.7" fill="url(#bac8aa0a-b172-4be9-bed1-20deee32bfc4)"/>
      <rect class="b56310c2-8cd1-40a4-b628-ead35852abb1" x="526.66" y="386.59" width="15.61" height="15.61" rx="2.7"/>
      <rect x="550.6" y="386.59" width="19.62" height="15.61" rx="2.7" fill="url(#b823406d-1537-41f2-b381-f2e331fccc91)"/>
      <rect class="b56310c2-8cd1-40a4-b628-ead35852abb1" x="526.66" y="83.54" width="15.61" height="15.61" rx="2.7"/>
      <rect x="595.17" y="111.09" width="184.81" height="15.61" rx="2.7" fill="url(#f9f43bb7-e509-4887-a15d-0e54658d5a97)"/>
      <rect x="936.13" y="214.76" width="39.21" height="15.61" rx="2.7" transform="rotate(.92 5622.375 -9194.175)" fill="url(#ad9aa15d-ee64-446f-b4a2-f7d4b2fe6547)"/>
      <rect x="831.72" y="138.64" width="94.76" height="15.61" rx="2.7" fill="url(#ad2ca88d-b5b2-46e1-bace-10e6a427e549)"/>
      <rect x="550.6" y="166.19" width="19.62" height="15.61" rx="2.7" fill="url(#e25214e0-a076-40bb-a921-4fc52d85d6f6)"/>
      <rect x="575.43" y="193.74" width="29.43" height="15.61" rx="2.7" fill="url(#b47d58c7-30ab-4aa8-8e72-60212de955ea)"/>
      <rect x="560.72" y="221.29" width="29.43" height="15.61" rx="2.7" fill="url(#a5693748-ad4b-4f0e-be64-d3dc06b8ed68)"/>
      <rect x="595.17" y="248.84" width="85.43" height="15.61" rx="2.7" fill="url(#ea87d709-8a7a-4dcc-a242-3a02ca8b9316)"/>
      <rect x="781.24" y="248.84" width="44.19" height="15.61" rx="2.7" fill="url(#ac0fb480-15ac-4c3b-8b52-02b974ae91fb)"/>
      <rect x="550.6" y="83.54" width="19.62" height="15.61" rx="2.7" fill="url(#ba3c84dc-75d8-413b-aa6f-a7298af0fe7e)"/>
      <rect x="575.43" y="83.54" width="163.78" height="15.61" rx="2.7" fill="url(#f4e96c7f-c405-4cb0-af76-e28ac4da8989)"/>
      <path d="M485.92 38.82h560.76a7.71 7.71 0 017.71 7.71V58H478.21V46.53a7.71 7.71 0 017.71-7.71z" fill="url(#f19b1896-750a-47bb-8d42-ea402529d321)"/>
      <circle cx="503.14" cy="47.75" r="3.79" fill="#ffb501"/>
      <path d="M643.52 123.87a3.8 3.8 0 10-3.8 3.8 3.8 3.8 0 003.8-3.8z" transform="translate(-150.6 -76.12)" fill="#ff0125"/>
      <path d="M671.55 123.87a3.79 3.79 0 10-3.79 3.8 3.79 3.79 0 003.79-3.8z" transform="translate(-150.6 -76.12)" fill="#25ff01"/>
      <path class="a4adbdc5-9644-4d31-913f-09e0936192db" d="M548.3 432.39h64.93L814.7 26.23h-64.93L548.3 432.39zM653.24 432.39h104.43L959.14 26.23H854.71L653.24 432.39z"/>
      <ellipse class="fc04980c-d520-4512-9d61-575392c00c86" cx="1400.82" cy="609.33" rx="89.06" ry="11.46"/>
      <path d="M1611.4 496.89h-.19v25.26h.22a47.14 47.14 0 01.1 94.27h-.32v25.26h.34a72.4 72.4 0 00-.15-144.79z" transform="translate(-150.6 -76.12)" fill="url(#ed37f682-8276-49c8-87b4-3ca8d49f1df6)"/>
      <g style="mix-blend-mode:multiply" opacity=".35">
        <path class="e8744ecb-41d7-455b-be14-d246a283128f" d="M1574.87 506.84v38.1c7.09-13.13 19.91-22.77 36.56-22.79a47 47 0 0118.67 3.85v-26.67a72.44 72.44 0 00-55.23 7.51zM1630.1 639.25v-26.66a47.07 47.07 0 01-18.57 3.83c-16.69 0-29.55-9.65-36.66-22.8v38.11a72.4 72.4 0 0055.23 7.52z" transform="translate(-150.6 -76.12)"/>
      </g>
      <path d="M1611.48 469.44v-.14a2.17 2.17 0 01-1.66.83 2.08 2.08 0 01-2-1.53c-.08-.2-.17-.39-.24-.58a1.66 1.66 0 01-.1-.79h-.33l-136.34.14a4.23 4.23 0 00-4.22 4.23l.22 208.67c0 4.53 32.38 8.2 72.33 8.2s72.34-3.67 72.34-8.2v-.15h.14z" transform="translate(-150.6 -76.12)" fill="url(#b8467005-747d-42c6-a612-721e19a3bedd)"/>
      <path d="M1611.48 469.44a.68.68 0 000-.14 2.12 2.12 0 01-1.65.83 2.07 2.07 0 01-2-1.44c1.51 44.72-.53 154.89-39.86 183.53-35.6 25.93-79.52 23.5-101.2 20.14v7.91c0 4.53 32.38 8.2 72.33 8.2s72.34-3.67 72.34-8.2v-.15h.14z" transform="translate(-150.6 -76.12)" style="mix-blend-mode:multiply" opacity=".35" fill="#3d2855"/>
      <path class="e8744ecb-41d7-455b-be14-d246a283128f" d="M1539.14 476.64a484.08 484.08 0 01-50.49-2.33c-20.1-2.23-20.84-4.85-20.84-4.87s.74-2.63 20.84-4.86a546 546 0 01101 0c20.09 2.23 20.83 4.84 20.84 4.87s-.75 2.63-20.84 4.86a484.28 484.28 0 01-50.51 2.33z" transform="translate(-150.6 -76.12)"/>
      <path d="M1539.14 463.24c18.07 0 35.35.76 48.64 2.14 14.49 1.51 19.45 3.23 21.08 4.06-1.63.84-6.59 2.56-21.08 4.06-13.29 1.38-30.57 2.14-48.64 2.14s-35.34-.76-48.64-2.14c-14.49-1.5-19.45-3.22-21.08-4.06 1.63-.83 6.59-2.55 21.08-4.06 13.3-1.38 30.57-2.14 48.64-2.14zm0-2c-40 0-72.33 3.67-72.33 8.2s32.38 8.2 72.33 8.2 72.34-3.67 72.34-8.2-32.39-8.2-72.34-8.2z" transform="translate(-150.6 -76.12)" fill="#573d78"/>
      <path d="M1529.83 555.61a4.05 4.05 0 00-1.41-2.79l-16.76-14.41a3.35 3.35 0 00-1.16-.65l-2.87-63h-2.06l2.88 63a2.79 2.79 0 00-1.08.65l-14.84 14.41a3.55 3.55 0 00-1 2.79l1.52 22.87a4 4 0 003.94 3.76h31a3.44 3.44 0 003.44-3.76z" transform="translate(-150.6 -76.12)" style="mix-blend-mode:multiply" fill="#1d1129" opacity=".54"/>
      <path fill="#a498ff" d="M1353.44 398.6h2.05v69.68h-2.05z"/>
      <path d="M1485.9 577.18v-22.52a3.69 3.69 0 011.22-2.75l15.8-14.19a3.24 3.24 0 014.3 0l15.78 14.19a3.7 3.7 0 011.23 2.75v22.52a3.69 3.69 0 01-3.7 3.69h-31a3.69 3.69 0 01-3.63-3.69z" transform="translate(-150.6 -76.12)" fill="url(#a2717c05-fa57-4fed-ad16-7db5e47c78ec)"/>
      <ellipse class="fc04980c-d520-4512-9d61-575392c00c86" cx="100.79" cy="552.2" rx="100.79" ry="22.86"/>
      <path d="M170.91 475.66c-16.46 49.14.27 71 28.83 134.35 3.58 7.94 9 13.5 15.17 15.77q53 19.53 106-.12c6-2.24 11.32-7.86 14.83-15.65 28.56-63.32 45.29-85.21 28.83-134.35z" transform="translate(-150.6 -76.12)" fill="url(#b4c7babc-cd98-4461-b804-cc13ae254ea9)"/>
      <path class="b6e0c8f6-37e9-46ae-a2bf-3fada2f17050" d="M221.51 475.66h-50.6c-16.46 49.14.27 71 28.83 134.35 3.58 7.94 9 13.5 15.17 15.77a151.67 151.67 0 0053.09 9.74c-43.35-41.84-48.24-114.74-46.49-159.86z" transform="translate(-150.6 -76.12)"/>
      <path class="b6e0c8f6-37e9-46ae-a2bf-3fada2f17050" d="M166.53 491.56c9.67 6.93 51.3 12.14 101.19 12.14s91.52-5.21 101.2-12.14a139.88 139.88 0 00-4.38-15.9H170.91a139.32 139.32 0 00-4.38 15.9z" transform="translate(-150.6 -76.12)"/>
      <ellipse cx="117.12" cy="384.31" rx="103.31" ry="15.23" fill="#756bcf"/>
      <path d="M267.72 445.21c-57.05 0-103.31 6.81-103.31 15.22V482a2.44 2.44 0 00.14.79c2.8 8 47.92 14.43 103.17 14.43C324.78 497.21 371 490.39 371 482v-21.57c0-8.43-46.22-15.22-103.28-15.22z" transform="translate(-150.6 -76.12)" fill="url(#ad6e707c-ff21-42f7-afa5-fe35fe24b24e)"/>
      <path class="b6e0c8f6-37e9-46ae-a2bf-3fada2f17050" d="M164.55 482.78c1.76 5.07 20.35 9.48 47.69 12.05a389.89 389.89 0 012.4-47.46c-30.09 2.66-50.23 7.51-50.23 13.06V482a2.44 2.44 0 00.14.79z" transform="translate(-150.6 -76.12)"/>
      <ellipse cx="117.12" cy="383.12" rx="95.35" ry="12.03" fill="#190b2c"/>
      <circle cx="214.26" cy="339.94" r="37.8" transform="rotate(-64.61 78.76 420.97)" fill="url(#af1cca66-ac85-4a25-94cd-e8c0648aa719)"/>
      <path class="be6c708e-a1a0-4cce-9b59-94dd872085fb" d="M183.81 347.69c-4.21-11.8-2.91-23.85 2.53-33.23a37.8 37.8 0 0037 62.16c-16.82.05-33.28-11.39-39.53-28.93z" transform="translate(-150.6 -76.12)"/>
      <ellipse cx="333.89" cy="334.36" rx="48.6" ry="42.1" transform="rotate(-43.56 163.306 484.747)" fill="url(#bed5417f-5b55-4f7b-8267-bb30f3022067)"/>
      <path class="be6c708e-a1a0-4cce-9b59-94dd872085fb" d="M298.67 367.85c9.68 10.18 24 13.71 38.11 10.84-27.66-16.89-27.92-57.8-25.79-79.87a56.31 56.31 0 00-6.11 5c-19.45 18.53-22.23 47.18-6.21 64.03z" transform="translate(-150.6 -76.12)"/>
      <ellipse cx="322.84" cy="278.22" rx="26.13" ry="37.46" transform="rotate(-4.2 -790.432 2293.711)" fill="url(#f0edb70c-63a3-4657-adef-79310eb1406a)"/>
      <path class="be6c708e-a1a0-4cce-9b59-94dd872085fb" d="M300.49 276.4c2-19.15 13.7-33.86 26.88-34.62a18.84 18.84 0 00-7.27-.91c-14.4 1-24.83 18.64-23.32 39.27.9 12.28 5.84 22.87 12.73 29.21-6.71-7.35-10.41-19.57-9.02-32.95z" transform="translate(-150.6 -76.12)"/>
      <path d="M330.29 459.9v-4.19-1.31c0-1.22-.05-2.42-.08-3.63v-.62c-2.28-75.14-29.35-134.47-62.41-134.47S207.6 375 205.32 450.15v.62c0 1.21-.06 2.42-.08 3.64V460.43c0 2.65 0 5.29.09 7.9a595.64 595.64 0 0062.47 2.94 595.85 595.85 0 0062.48-2.94c.06-2.61.09-5.25.09-7.9z" transform="translate(-150.6 -76.12)" fill="url(#b9f44534-5b70-4b84-91e9-42651bbc7bd2)"/>
      <path class="be6c708e-a1a0-4cce-9b59-94dd872085fb" d="M280.65 465.79c-23.89-.15-45.83-1.07-62.72-2.84-.27-2.52-.53-5.06-.75-7.62v-.51c-.11-1.36-.21-2.7-.31-4l-.09-1.26c-.08-1.18-.15-2.34-.21-3.51v-.6c-3.47-63.43 13-115.18 39.38-127.13-27.47 12.19-48.55 65.94-50.55 131.87v.62c0 1.21-.06 2.42-.08 3.64V460.47c0 2.65 0 5.29.09 7.9a595.64 595.64 0 0062.47 2.94c22.17 0 42.56-.95 58.76-2.55-13.37-.89-29.08-2.86-45.99-2.97z" transform="translate(-150.6 -76.12)"/>
      <path class="f81e0537-e29f-49fa-bcaf-08fd65acbc6e" d="M202 334.6a3 3 0 10-3 3 3 3 0 003-3zM226.4 317.66a3 3 0 10-3 3 3 3 0 003-3zM211.5 353.19a3 3 0 10-2.95 3 2.95 2.95 0 002.95-3zM308.79 333.33a3 3 0 10-2.08-3.63 3 3 0 002.08 3.63z" transform="translate(-150.6 -76.12)"/>
      <path d="M352.85 452.26c9.37 2 14.76 4.43 14.76 7 0 7.47-46 13.52-102.67 13.52-35.43 0-66.67-2.36-85.13-6 18 3.92 50.63 6.54 87.91 6.54 56.71 0 102.68-6.06 102.68-13.53 0-2.79-6.47-5.38-17.55-7.53z" transform="translate(-150.6 -76.12)" style="mix-blend-mode:screen" fill="#443f7b"/>
      <path class="f81e0537-e29f-49fa-bcaf-08fd65acbc6e" d="M235.74 430.14a3 3 0 10-3 3 2.95 2.95 0 003-3zM260.2 413.2a3 3 0 10-3 3 3 3 0 003-3zM245.3 448.74a3 3 0 10-3 3 3 3 0 003-3zM282.83 334.93a3 3 0 10-2.07-3.63 3 3 0 002.07 3.63zM291.79 357.06a3 3 0 10-2.07-3.63 3 3 0 002.07 3.63zM343.42 366.75a3 3 0 10-2.08-3.63 3 3 0 002.08 3.63zM328.66 351.91a3 3 0 10-2.08-3.63 3 3 0 002.08 3.63zM326.59 312.21a3 3 0 10-2.07-3.64 3 3 0 002.07 3.64zM351.23 334.93a3 3 0 10-2.08-3.63 3 3 0 002.08 3.63zM354.19 303.4a3 3 0 10-2.08-3.63 3 3 0 002.08 3.63zM314.18 294.88a3 3 0 10-2.07-3.64 3 3 0 002.07 3.64zM337.5 278.92a3 3 0 10-2.08-3.63 3 3 0 002.08 3.63zM326.59 255.71a3 3 0 10-2.07-3.63 3 3 0 002.07 3.63zM310.15 273a3 3 0 10-2.07-3.63 3 3 0 002.07 3.63zM238.6 357.06a3 3 0 10-2.07-3.63 3 3 0 002.07 3.63zM288.83 390.94a3 3 0 10-2.07-3.63 3 3 0 002.07 3.63zM269.14 362a3 3 0 10-2.08-3.64 3 3 0 002.08 3.64zM228 397.63a3 3 0 10-2.07-3.63 3 3 0 002.07 3.63zM296.77 425.4a3 3 0 10-2.08-3.63 3 3 0 002.08 3.63zM312.36 398.73a3 3 0 10-2.08-3.64 3 3 0 002.08 3.64zM314 455.11a3 3 0 10-2.08-3.63 3 3 0 002.08 3.63zM264 431.32a3 3 0 10-2.08-3.64 3 3 0 002.08 3.64zM283.24 458.07a3 3 0 10-2.08-3.63 3 3 0 002.08 3.63zM264 455.11a3 3 0 10-2.08-3.63 3 3 0 002.08 3.63zM255.46 383.56a3 3 0 10-2.08-3.63 3 3 0 002.08 3.63zM262.38 339.25a3 3 0 10-2.08-3.63 3 3 0 002.08 3.63zM329.4 430.14a2.44 2.44 0 10-1.71-3 2.45 2.45 0 001.71 3z" transform="translate(-150.6 -76.12)"/>
    </g>
  </g>
</svg>
